<mxfile host="app.diagrams.net" agent="Mozilla/5.0 (Windows NT 10.0; Win64; x64) AppleWebKit/537.36 (KHTML, like Gecko) Chrome/128.0.0.0 Safari/537.36 Edg/128.0.0.0" version="24.7.7">
  <diagram name="Página-1" id="gDb0Wxgi0HMaA3OUfaVs">
    <mxGraphModel dx="1426" dy="791" grid="1" gridSize="10" guides="1" tooltips="1" connect="1" arrows="1" fold="1" page="1" pageScale="1" pageWidth="827" pageHeight="1169" math="0" shadow="0">
      <root>
        <mxCell id="0" />
        <mxCell id="1" parent="0" />
        <mxCell id="EaHvDRHjJH-mLPHdcrsP-2" style="edgeStyle=orthogonalEdgeStyle;rounded=0;orthogonalLoop=1;jettySize=auto;html=1;entryX=1;entryY=0.5;entryDx=0;entryDy=0;" edge="1" parent="1" source="EaHvDRHjJH-mLPHdcrsP-1" target="EaHvDRHjJH-mLPHdcrsP-8">
          <mxGeometry relative="1" as="geometry">
            <mxPoint x="280" y="150" as="targetPoint" />
          </mxGeometry>
        </mxCell>
        <mxCell id="EaHvDRHjJH-mLPHdcrsP-7" style="edgeStyle=orthogonalEdgeStyle;rounded=0;orthogonalLoop=1;jettySize=auto;html=1;" edge="1" parent="1" source="EaHvDRHjJH-mLPHdcrsP-1">
          <mxGeometry relative="1" as="geometry">
            <mxPoint x="550" y="150" as="targetPoint" />
          </mxGeometry>
        </mxCell>
        <mxCell id="EaHvDRHjJH-mLPHdcrsP-1" value="&lt;font style=&quot;font-size: 10px;&quot;&gt;&lt;b&gt;Cliente &lt;/b&gt;(Navegador/Site)&lt;br&gt;&lt;b&gt;Tecnologia&lt;/b&gt;:&amp;nbsp; NextJs&lt;br&gt;&lt;b&gt;Protocolo&lt;/b&gt;: HTTPS&lt;/font&gt;" style="ellipse;whiteSpace=wrap;html=1;align=center;" vertex="1" parent="1">
          <mxGeometry x="340" y="80" width="140" height="140" as="geometry" />
        </mxCell>
        <mxCell id="EaHvDRHjJH-mLPHdcrsP-18" style="edgeStyle=orthogonalEdgeStyle;rounded=0;orthogonalLoop=1;jettySize=auto;html=1;" edge="1" parent="1" source="EaHvDRHjJH-mLPHdcrsP-3">
          <mxGeometry relative="1" as="geometry">
            <mxPoint x="480" y="150" as="targetPoint" />
          </mxGeometry>
        </mxCell>
        <mxCell id="EaHvDRHjJH-mLPHdcrsP-35" style="edgeStyle=orthogonalEdgeStyle;rounded=0;orthogonalLoop=1;jettySize=auto;html=1;" edge="1" parent="1" source="EaHvDRHjJH-mLPHdcrsP-3" target="EaHvDRHjJH-mLPHdcrsP-27">
          <mxGeometry relative="1" as="geometry" />
        </mxCell>
        <mxCell id="EaHvDRHjJH-mLPHdcrsP-3" value="&lt;font style=&quot;font-size: 10px;&quot;&gt;&lt;b&gt;Servidor&lt;/b&gt;(API/Navegador)&lt;br&gt;&lt;b&gt;Tecnologia&lt;/b&gt;:&amp;nbsp; NodeJS&lt;br&gt;&lt;b&gt;Protocolo&lt;/b&gt;: HTTPS&lt;/font&gt;" style="ellipse;whiteSpace=wrap;html=1;align=center;" vertex="1" parent="1">
          <mxGeometry x="550" y="80" width="140" height="140" as="geometry" />
        </mxCell>
        <mxCell id="EaHvDRHjJH-mLPHdcrsP-10" style="edgeStyle=orthogonalEdgeStyle;rounded=0;orthogonalLoop=1;jettySize=auto;html=1;exitX=0.5;exitY=1;exitDx=0;exitDy=0;" edge="1" parent="1" source="EaHvDRHjJH-mLPHdcrsP-8">
          <mxGeometry relative="1" as="geometry">
            <mxPoint x="280" y="300" as="targetPoint" />
          </mxGeometry>
        </mxCell>
        <mxCell id="EaHvDRHjJH-mLPHdcrsP-16" style="edgeStyle=orthogonalEdgeStyle;rounded=0;orthogonalLoop=1;jettySize=auto;html=1;" edge="1" parent="1" source="EaHvDRHjJH-mLPHdcrsP-8">
          <mxGeometry relative="1" as="geometry">
            <mxPoint x="340" y="150" as="targetPoint" />
          </mxGeometry>
        </mxCell>
        <mxCell id="EaHvDRHjJH-mLPHdcrsP-19" value="" style="edgeStyle=orthogonalEdgeStyle;rounded=0;orthogonalLoop=1;jettySize=auto;html=1;" edge="1" parent="1" source="EaHvDRHjJH-mLPHdcrsP-8" target="EaHvDRHjJH-mLPHdcrsP-11">
          <mxGeometry relative="1" as="geometry" />
        </mxCell>
        <mxCell id="EaHvDRHjJH-mLPHdcrsP-28" style="edgeStyle=orthogonalEdgeStyle;rounded=0;orthogonalLoop=1;jettySize=auto;html=1;exitX=0.5;exitY=1;exitDx=0;exitDy=0;entryX=0.5;entryY=0;entryDx=0;entryDy=0;" edge="1" parent="1" source="EaHvDRHjJH-mLPHdcrsP-8" target="EaHvDRHjJH-mLPHdcrsP-11">
          <mxGeometry relative="1" as="geometry" />
        </mxCell>
        <mxCell id="EaHvDRHjJH-mLPHdcrsP-8" value="&lt;font style=&quot;font-size: 10px;&quot;&gt;&lt;b&gt;Servidor&lt;/b&gt;(API/Security)&lt;br&gt;&lt;b&gt;Tecnologia&lt;/b&gt;:&amp;nbsp; NodeJs&lt;br&gt;&lt;b&gt;Protocolo&lt;/b&gt;: HTTPS&lt;/font&gt;" style="ellipse;whiteSpace=wrap;html=1;align=center;" vertex="1" parent="1">
          <mxGeometry x="120" y="80" width="140" height="140" as="geometry" />
        </mxCell>
        <mxCell id="EaHvDRHjJH-mLPHdcrsP-12" style="edgeStyle=orthogonalEdgeStyle;rounded=0;orthogonalLoop=1;jettySize=auto;html=1;entryX=0.5;entryY=0;entryDx=0;entryDy=0;" edge="1" parent="1" source="EaHvDRHjJH-mLPHdcrsP-11" target="EaHvDRHjJH-mLPHdcrsP-13">
          <mxGeometry relative="1" as="geometry">
            <mxPoint x="190" y="490" as="targetPoint" />
          </mxGeometry>
        </mxCell>
        <mxCell id="EaHvDRHjJH-mLPHdcrsP-24" style="edgeStyle=orthogonalEdgeStyle;rounded=0;orthogonalLoop=1;jettySize=auto;html=1;" edge="1" parent="1" source="EaHvDRHjJH-mLPHdcrsP-11" target="EaHvDRHjJH-mLPHdcrsP-8">
          <mxGeometry relative="1" as="geometry" />
        </mxCell>
        <mxCell id="EaHvDRHjJH-mLPHdcrsP-11" value="&lt;font style=&quot;font-size: 10px;&quot;&gt;&lt;b&gt;Gatway&lt;/b&gt;(Pagamento)&lt;br&gt;&lt;b&gt;Tecnologia&lt;/b&gt;:&amp;nbsp; IUGU&lt;br&gt;&lt;b&gt;Protocolo&lt;/b&gt;:HTTPS&amp;nbsp;&lt;/font&gt;" style="ellipse;whiteSpace=wrap;html=1;align=center;" vertex="1" parent="1">
          <mxGeometry x="30" y="300" width="140" height="140" as="geometry" />
        </mxCell>
        <mxCell id="EaHvDRHjJH-mLPHdcrsP-22" style="edgeStyle=orthogonalEdgeStyle;rounded=0;orthogonalLoop=1;jettySize=auto;html=1;" edge="1" parent="1" source="EaHvDRHjJH-mLPHdcrsP-13" target="EaHvDRHjJH-mLPHdcrsP-11">
          <mxGeometry relative="1" as="geometry" />
        </mxCell>
        <mxCell id="EaHvDRHjJH-mLPHdcrsP-45" style="edgeStyle=orthogonalEdgeStyle;rounded=0;orthogonalLoop=1;jettySize=auto;html=1;entryX=0;entryY=0.5;entryDx=0;entryDy=0;" edge="1" parent="1" source="EaHvDRHjJH-mLPHdcrsP-13" target="EaHvDRHjJH-mLPHdcrsP-37">
          <mxGeometry relative="1" as="geometry" />
        </mxCell>
        <mxCell id="EaHvDRHjJH-mLPHdcrsP-13" value="&lt;font style=&quot;font-size: 10px;&quot;&gt;&lt;b&gt;Service&lt;/b&gt;(Gerar Boletos, informações sobre venda)&lt;br&gt;&lt;b&gt;Tecnologia&lt;/b&gt;:&amp;nbsp; IUGU&lt;br&gt;&lt;b&gt;Protocolo&lt;/b&gt;:HTTPS&amp;nbsp;&amp;nbsp;&lt;/font&gt;" style="ellipse;whiteSpace=wrap;html=1;align=center;" vertex="1" parent="1">
          <mxGeometry x="30" y="540" width="140" height="140" as="geometry" />
        </mxCell>
        <mxCell id="EaHvDRHjJH-mLPHdcrsP-25" value="&lt;font style=&quot;font-size: 10px;&quot;&gt;&lt;b&gt;DataBase&lt;/b&gt;(Usuários/Cartões)&lt;br&gt;&lt;b&gt;Tecnologia&lt;/b&gt;:&amp;nbsp; SQL&lt;br&gt;&lt;b&gt;Protocolo&lt;/b&gt;:HTTPS&amp;nbsp;&lt;/font&gt;" style="ellipse;whiteSpace=wrap;html=1;align=center;" vertex="1" parent="1">
          <mxGeometry x="210" y="300" width="140" height="140" as="geometry" />
        </mxCell>
        <mxCell id="EaHvDRHjJH-mLPHdcrsP-36" style="edgeStyle=orthogonalEdgeStyle;rounded=0;orthogonalLoop=1;jettySize=auto;html=1;" edge="1" parent="1" source="EaHvDRHjJH-mLPHdcrsP-27" target="EaHvDRHjJH-mLPHdcrsP-3">
          <mxGeometry relative="1" as="geometry" />
        </mxCell>
        <mxCell id="EaHvDRHjJH-mLPHdcrsP-43" style="edgeStyle=orthogonalEdgeStyle;rounded=0;orthogonalLoop=1;jettySize=auto;html=1;" edge="1" parent="1" source="EaHvDRHjJH-mLPHdcrsP-27" target="EaHvDRHjJH-mLPHdcrsP-39">
          <mxGeometry relative="1" as="geometry" />
        </mxCell>
        <mxCell id="EaHvDRHjJH-mLPHdcrsP-27" value="&lt;font style=&quot;font-size: 10px;&quot;&gt;&lt;b&gt;DataBase&lt;/b&gt;(Produtos, Categorias)&lt;br&gt;&lt;b&gt;Tecnologia&lt;/b&gt;:&amp;nbsp; SQL&lt;br&gt;&lt;b&gt;Protocolo&lt;/b&gt;: HTTPS&lt;/font&gt;" style="ellipse;whiteSpace=wrap;html=1;align=center;" vertex="1" parent="1">
          <mxGeometry x="550" y="280" width="140" height="140" as="geometry" />
        </mxCell>
        <mxCell id="EaHvDRHjJH-mLPHdcrsP-40" style="edgeStyle=orthogonalEdgeStyle;rounded=0;orthogonalLoop=1;jettySize=auto;html=1;entryX=0;entryY=0.5;entryDx=0;entryDy=0;" edge="1" parent="1" source="EaHvDRHjJH-mLPHdcrsP-37" target="EaHvDRHjJH-mLPHdcrsP-39">
          <mxGeometry relative="1" as="geometry" />
        </mxCell>
        <mxCell id="EaHvDRHjJH-mLPHdcrsP-44" style="edgeStyle=orthogonalEdgeStyle;rounded=0;orthogonalLoop=1;jettySize=auto;html=1;entryX=1;entryY=0.5;entryDx=0;entryDy=0;" edge="1" parent="1" source="EaHvDRHjJH-mLPHdcrsP-37" target="EaHvDRHjJH-mLPHdcrsP-13">
          <mxGeometry relative="1" as="geometry" />
        </mxCell>
        <mxCell id="EaHvDRHjJH-mLPHdcrsP-37" value="&lt;font style=&quot;font-size: 10px;&quot;&gt;&lt;b&gt;Cliente&lt;/b&gt;(Admin/Dashboard)&lt;br&gt;&lt;b&gt;Tecnologia&lt;/b&gt;:&amp;nbsp; React&lt;br&gt;&lt;b&gt;Protocolo&lt;/b&gt;: HTTPS&lt;/font&gt;" style="ellipse;whiteSpace=wrap;html=1;align=center;" vertex="1" parent="1">
          <mxGeometry x="310" y="540" width="140" height="140" as="geometry" />
        </mxCell>
        <mxCell id="EaHvDRHjJH-mLPHdcrsP-41" style="edgeStyle=orthogonalEdgeStyle;rounded=0;orthogonalLoop=1;jettySize=auto;html=1;" edge="1" parent="1" source="EaHvDRHjJH-mLPHdcrsP-39" target="EaHvDRHjJH-mLPHdcrsP-37">
          <mxGeometry relative="1" as="geometry" />
        </mxCell>
        <mxCell id="EaHvDRHjJH-mLPHdcrsP-42" style="edgeStyle=orthogonalEdgeStyle;rounded=0;orthogonalLoop=1;jettySize=auto;html=1;entryX=0.5;entryY=1;entryDx=0;entryDy=0;" edge="1" parent="1" source="EaHvDRHjJH-mLPHdcrsP-39" target="EaHvDRHjJH-mLPHdcrsP-27">
          <mxGeometry relative="1" as="geometry" />
        </mxCell>
        <mxCell id="EaHvDRHjJH-mLPHdcrsP-39" value="&lt;font style=&quot;font-size: 10px;&quot;&gt;&lt;b&gt;Servidor&lt;/b&gt;(API/Admin)&lt;br&gt;&lt;b&gt;Tecnologia&lt;/b&gt;:&amp;nbsp; Node&lt;br&gt;&lt;b&gt;Protocolo&lt;/b&gt;: HTTPS&lt;/font&gt;" style="ellipse;whiteSpace=wrap;html=1;align=center;" vertex="1" parent="1">
          <mxGeometry x="550" y="540" width="140" height="140" as="geometry" />
        </mxCell>
      </root>
    </mxGraphModel>
  </diagram>
</mxfile>
